<?xml version="1.0" standalone="no"?>
<!DOCTYPE svg PUBLIC "-//W3C//DTD SVG 20010904//EN"
 "http://www.w3.org/TR/2001/REC-SVG-20010904/DTD/svg10.dtd">
<svg version="1.0" xmlns="http://www.w3.org/2000/svg"
 width="500.000000pt" height="500.000000pt" viewBox="0 0 500.000000 500.000000"
 preserveAspectRatio="xMidYMid meet">
<metadata>
Created by potrace 1.14, written by Peter Selinger 2001-2017
</metadata>
<g transform="translate(0.000000,500.000000) scale(0.100000,-0.100000)"
fill="#000000" stroke="none">
<path d="M2183 3540 c-75 -45 -84 -148 -19 -207 31 -29 43 -33 90 -33 67 0
110 31 126 90 33 121 -91 215 -197 150z"/>
<path d="M2460 2600 l0 -650 140 0 140 0 0 260 0 260 225 0 225 0 0 130 0 130
-222 2 -223 3 -3 128 -3 127 236 0 235 0 0 130 0 130 -375 0 -375 0 0 -650z"/>
<path d="M2118 2588 c-3 -444 -4 -464 -23 -498 -58 -99 -284 -111 -349 -18
-15 21 -16 10 -16 -145 0 -150 2 -168 18 -175 9 -4 80 -7 157 -7 121 0 150 3
214 24 91 30 163 86 209 161 66 110 72 166 72 688 l0 432 -140 0 -139 0 -3
-462z"/>
<path d="M970 1420 c0 -5 9 -10 20 -10 17 0 20 -7 20 -39 0 -33 -4 -40 -22
-44 -20 -3 -21 -4 -5 -11 29 -14 47 11 47 65 0 48 -1 49 -30 49 -16 0 -30 -4
-30 -10z"/>
<path d="M1183 1415 c-45 -32 -17 -105 39 -105 23 0 58 35 58 58 0 46 -59 74
-97 47z m67 -19 c6 -8 10 -25 8 -38 -4 -32 -62 -39 -78 -9 -23 44 38 85 70 47z"/>
<path d="M1410 1370 l0 -60 34 0 c39 0 64 23 48 43 -6 7 -8 23 -5 36 7 27 -10
41 -49 41 -27 0 -28 -1 -28 -60z m61 25 c0 -5 -12 -11 -26 -13 -18 -2 -25 1
-25 13 0 12 7 15 25 13 14 -2 26 -7 26 -13z m9 -50 c0 -10 -10 -15 -30 -15
-20 0 -30 5 -30 15 0 10 10 15 30 15 20 0 30 -5 30 -15z"/>
<path d="M1643 1415 c-45 -32 -17 -105 39 -105 23 0 58 35 58 58 0 46 -59 74
-97 47z m67 -19 c6 -8 10 -25 8 -38 -4 -32 -62 -39 -78 -9 -23 44 38 85 70 47z"/>
<path d="M1871 1368 c1 -35 4 -53 6 -40 6 28 38 29 53 2 6 -11 15 -20 20 -20
6 0 5 9 -2 20 -10 15 -10 22 0 32 30 30 2 68 -52 68 -25 0 -26 -2 -25 -62z
m67 20 c-2 -17 -11 -24 -30 -26 -24 -3 -28 0 -28 22 0 22 4 26 31 26 26 0 30
-3 27 -22z"/>
<path d="M2240 1370 c0 -33 4 -60 10 -60 6 0 10 11 10 24 0 19 6 26 28 29 l27
4 -27 2 c-21 1 -28 6 -28 21 0 16 7 20 30 20 17 0 30 5 30 10 0 6 -18 10 -40
10 l-40 0 0 -60z"/>
<path d="M2440 1370 c0 -33 4 -60 10 -60 6 0 10 9 10 20 0 27 31 26 48 -1 7
-12 16 -18 19 -15 3 3 0 12 -6 20 -8 10 -9 16 -1 21 14 8 13 48 -2 63 -7 7
-27 12 -45 12 l-33 0 0 -60z m77 24 c7 -18 -12 -34 -39 -34 -13 0 -18 8 -18
25 0 20 5 25 25 25 14 0 28 -7 32 -16z"/>
<path d="M2670 1370 l0 -60 40 0 c22 0 40 5 40 10 0 6 -16 10 -35 10 -24 0
-35 5 -35 15 0 10 10 15 30 15 17 0 30 5 30 10 0 6 -13 10 -30 10 -20 0 -30 5
-30 15 0 10 11 15 35 15 19 0 35 5 35 10 0 6 -18 10 -40 10 l-40 0 0 -60z"/>
<path d="M2880 1370 l0 -63 42 6 c43 6 68 27 68 57 0 30 -25 51 -68 57 l-42 6
0 -63z m80 26 c6 -8 10 -25 8 -38 -2 -18 -10 -24 -35 -26 -32 -3 -33 -2 -33
37 0 36 3 41 24 41 13 0 29 -7 36 -14z"/>
<path d="M3120 1370 l0 -60 40 0 c22 0 40 5 40 10 0 6 -16 10 -35 10 -24 0
-35 5 -35 15 0 10 10 15 30 15 17 0 30 5 30 10 0 6 -13 10 -30 10 -20 0 -30 5
-30 15 0 10 11 15 35 15 19 0 35 5 35 10 0 6 -18 10 -40 10 l-40 0 0 -60z"/>
<path d="M3331 1368 c1 -35 4 -53 6 -40 6 28 38 29 53 2 6 -11 15 -20 20 -20
6 0 5 9 -2 20 -10 15 -10 22 0 32 30 30 2 68 -52 68 -25 0 -26 -2 -25 -62z
m67 20 c-2 -17 -11 -24 -30 -26 -24 -3 -28 0 -28 22 0 22 4 26 31 26 26 0 30
-3 27 -22z"/>
<path d="M3563 1370 c0 -36 2 -50 4 -32 2 17 2 47 0 65 -2 17 -4 3 -4 -33z"/>
<path d="M3722 1414 c-50 -35 -4 -123 51 -96 21 10 20 11 -10 11 -40 1 -60 30
-42 62 9 18 17 20 47 16 34 -6 35 -5 18 8 -25 19 -36 19 -64 -1z"/>
<path d="M3930 1370 c0 -33 4 -60 10 -60 6 0 10 9 10 19 0 33 22 36 42 8 11
-15 24 -27 30 -27 6 0 -1 15 -15 34 -26 33 -26 34 -7 51 11 10 20 23 20 29 0
5 -16 -5 -35 -24 l-35 -34 0 32 c0 18 -4 32 -10 32 -6 0 -10 -27 -10 -60z"/>
</g>
</svg>
